<svg width="83" height="112" viewBox="0 0 83 112" fill="none" xmlns="http://www.w3.org/2000/svg">
<path d="M4.03031 48.8541C3.36081 49.6335 3.44994 50.8081 4.2294 51.4776C5.00885 52.1471 6.18346 52.058 6.85295 51.2785L4.03031 48.8541ZM54.4783 2.22558H56.3388C56.3388 1.48405 55.8985 0.813331 55.2181 0.518495L54.4783 2.22558ZM54.4783 12.0595H52.6179C52.6179 12.6052 52.8574 13.1233 53.2731 13.4768C53.6888 13.8303 54.2387 13.9835 54.7773 13.8958L54.4783 12.0595ZM76.9369 30.5313L75.0775 30.5954C75.0965 31.1467 75.3592 31.6612 75.7947 31.9999L76.9369 30.5313ZM62.766 60.0878C63.4567 59.3271 63.4 58.1504 62.6393 57.4597C61.8786 56.769 60.702 56.8257 60.0113 57.5864L62.766 60.0878ZM26.1726 57.5081L26.8385 59.2454C27.3535 59.0479 27.7543 58.6322 27.9329 58.1104L26.1726 57.5081ZM5.44163 61.4949L4.72323 59.7787L5.44163 61.4949ZM26.1726 87.9401L26.6935 86.1541C26.669 86.1469 26.6444 86.1403 26.6196 86.1342L26.1726 87.9401ZM47.9591 111.141C48.5893 111.953 49.7581 112.1 50.5696 111.469C51.3812 110.839 51.5281 109.67 50.8979 108.859L47.9591 111.141ZM67.5016 26.1459C67.5016 25.1184 66.6686 24.2855 65.6411 24.2855C64.6136 24.2855 63.7807 25.1184 63.7807 26.1459H67.5016ZM63.7807 29.8669C63.7807 30.8944 64.6136 31.7274 65.6411 31.7274C66.6686 31.7274 67.5016 30.8944 67.5016 29.8669H63.7807ZM39.1959 57.5081C39.1959 56.4806 38.3629 55.6477 37.3354 55.6477C36.3079 55.6477 35.475 56.4806 35.475 57.5081H39.1959ZM35.475 61.4949C35.475 62.5224 36.3079 63.3553 37.3354 63.3553C38.3629 63.3553 39.1959 62.5224 39.1959 61.4949H35.475ZM80.5249 33.322L82.3432 32.9281C82.2508 32.5017 82.0115 32.1213 81.6671 31.8535L80.5249 33.322ZM6.85295 51.2785C12.993 44.1301 23.1674 31.4126 32.8926 20.8088C37.7493 15.5133 42.414 10.8357 46.3218 7.70853C48.2824 6.1396 49.9739 5.02528 51.3462 4.40497C52.7913 3.75173 53.486 3.8232 53.7386 3.93267L55.2181 0.518495C53.4773 -0.235828 51.5239 0.241238 49.8136 1.01433C48.0304 1.82035 46.0591 3.15309 43.9969 4.80331C39.8593 8.1144 35.039 12.9634 30.1503 18.2937C20.3849 28.9414 10.0276 41.8718 4.03031 48.8541L6.85295 51.2785ZM52.6179 2.22558V12.0595H56.3388V2.22558H52.6179ZM54.7773 13.8958C57.1535 13.509 62.2032 14.1533 66.7168 16.7747C71.1205 19.3322 74.8383 23.6582 75.0775 30.5954L78.7962 30.4672C78.5039 21.9891 73.8495 16.6141 68.5855 13.557C63.4313 10.5637 57.5175 9.6798 54.1794 10.2232L54.7773 13.8958ZM60.0113 57.5864C54.7053 63.4296 49.1215 71.2297 47.3832 78.7504C46.5037 82.5557 46.5777 86.4293 48.3232 89.9396C50.0737 93.4599 53.3723 96.3482 58.4199 98.4308L59.8391 94.9911C55.385 93.1534 52.9029 90.7925 51.655 88.2829C50.4021 85.7633 50.2602 82.8262 51.0086 79.5883C52.5261 73.0226 57.5736 65.806 62.766 60.0878L60.0113 57.5864ZM58.4199 98.4308C63.8236 100.66 68.7328 99.6108 72.4981 96.4574C76.1651 93.3864 78.6336 88.4341 79.7096 82.9317C81.8597 71.9363 78.6077 57.8036 66.6731 49.8472L64.6091 52.9432C75.0002 59.8706 77.9941 72.3159 76.0578 82.2176C75.0906 87.1638 72.9329 91.2398 70.109 93.6048C67.3834 95.8874 63.9371 96.6819 59.8391 94.9911L58.4199 98.4308ZM66.6731 49.8472C55.1907 42.1922 45.5997 40.9633 38.2634 43.3109C30.9789 45.6419 26.3015 51.3836 24.4123 56.9059L27.9329 58.1104C29.4988 53.533 33.3929 48.7763 39.3975 46.8548C45.3503 44.9499 53.7659 45.7144 64.6091 52.9432L66.6731 49.8472ZM25.5066 55.7709C21.7634 57.2059 17.8782 57.7291 14.2537 58.114C12.4755 58.3028 10.7017 58.4643 9.13061 58.6914C7.5604 58.9184 6.03227 59.2307 4.72323 59.7787L6.16003 63.211C7.02843 62.8475 8.18371 62.5879 9.66298 62.374C11.1414 62.1603 12.7831 62.0121 14.6466 61.8141C18.3055 61.4256 22.6084 60.8669 26.8385 59.2454L25.5066 55.7709ZM4.72323 59.7787C2.54798 60.6893 1.17201 62.873 0.672069 65.3309C0.162488 67.8361 0.49205 70.8472 1.90991 73.9054C4.76342 80.06 11.956 86.3378 25.7255 89.7461L26.6196 86.1342C13.5452 82.8979 7.51524 77.1491 5.28567 72.3403C4.162 69.9166 3.98491 67.7118 4.31835 66.0725C4.66142 64.3859 5.47814 63.4965 6.16003 63.211L4.72323 59.7787ZM25.6516 89.7262C28.3455 90.5119 31.9282 93.2105 35.9689 97.2379C39.9351 101.191 44.0995 106.171 47.9591 111.141L50.8979 108.859C46.9967 103.835 42.7225 98.7158 38.5957 94.6025C34.5433 90.5634 30.3784 87.2289 26.6935 86.1541L25.6516 89.7262ZM63.7807 26.1459V29.8669H67.5016V26.1459H63.7807ZM35.475 57.5081V61.4949H39.1959V57.5081H35.475ZM75.7947 31.9999L79.3827 34.7906L81.6671 31.8535L78.0791 29.0627L75.7947 31.9999ZM78.7066 33.716C79.09 35.4851 79.3063 42.2919 67.7379 50.6867L69.9232 53.6983C82.3814 44.6578 83.1116 36.4745 82.3432 32.9281L78.7066 33.716Z" fill="white"/>
</svg>
